<svg xmlns="http://www.w3.org/2000/svg" xmlns:xlink="http://www.w3.org/1999/xlink" width="1500" zoomAndPan="magnify" viewBox="0 0 1125 225" height="300" preserveAspectRatio="xMidYMid meet" version="1.0"><defs><clipPath id="d28d9c4e82"><path d="M 966 94.722656 L 1005 94.722656 L 1005 129.972656 L 966 129.972656 Z M 966 94.722656 " clip-rule="nonzero"/></clipPath><clipPath id="f9a0ff9b29"><path d="M 75.160156 113 L 916.660156 113 L 916.660156 129.898438 L 75.160156 129.898438 Z M 75.160156 113 " clip-rule="nonzero"/></clipPath></defs><g clip-path="url(#d28d9c4e82)"><path fill="#020202" d="M 998.679688 95.242188 C 998.292969 94.792969 997.613281 94.746094 997.167969 95.132812 C 996.71875 95.519531 996.667969 96.195312 997.054688 96.644531 C 1004.714844 105.511719 1002.566406 115.617188 997.042969 121.695312 C 991.980469 127.269531 983.230469 130.316406 975.105469 124.558594 C 969.972656 120.921875 967.722656 116.007812 968.765625 110.71875 C 969.839844 105.285156 974.285156 100.5 979.335938 99.335938 C 983.355469 98.410156 987.117188 99.949219 989.933594 103.667969 C 992.027344 106.433594 992.46875 110.027344 991.09375 113.058594 C 989.890625 115.695312 987.539062 117.382812 984.804688 117.570312 C 981.449219 117.792969 979.945312 115.964844 979.347656 114.851562 C 978.460938 113.203125 978.460938 111.082031 979.347656 109.925781 C 979.902344 109.199219 980.738281 108.957031 981.828125 109.210938 C 982.417969 109.347656 982.675781 109.824219 982.695312 109.894531 C 982.695312 109.894531 982.667969 109.917969 982.574219 109.941406 C 982 110.082031 981.644531 110.660156 981.785156 111.238281 C 981.921875 111.8125 982.507812 112.167969 983.078125 112.027344 C 984.148438 111.769531 984.808594 110.972656 984.804688 109.949219 C 984.796875 108.664062 983.726562 107.449219 982.3125 107.121094 C 980.410156 106.675781 978.707031 107.226562 977.640625 108.621094 C 976.230469 110.464844 976.15625 113.445312 977.457031 115.867188 C 978.886719 118.535156 981.625 119.941406 984.953125 119.710938 C 988.484375 119.46875 991.507812 117.316406 993.046875 113.945312 C 994.75 110.199219 994.210938 105.765625 991.644531 102.375 C 988.289062 97.941406 983.746094 96.113281 978.855469 97.242188 C 973.019531 98.585938 967.890625 104.082031 966.660156 110.300781 C 965.957031 113.875 965.953125 120.703125 973.863281 126.3125 C 977.351562 128.78125 980.9375 129.828125 984.359375 129.828125 C 989.949219 129.828125 995.09375 127.035156 998.628906 123.140625 C 1004.792969 116.359375 1007.195312 105.101562 998.679688 95.242188 " fill-opacity="1" fill-rule="nonzero"/></g><g clip-path="url(#f9a0ff9b29)"><path fill="#000000" d="M 914.457031 113.765625 C 805.394531 112.402344 696.320312 113.828125 587.285156 116.132812 C 478.246094 118.4375 369.257812 121.621094 260.234375 123.785156 C 199.058594 124.996094 137.875 125.78125 76.6875 126.140625 C 76.476562 126.140625 76.273438 126.179688 76.078125 126.257812 C 75.882812 126.335938 75.710938 126.449219 75.5625 126.597656 C 75.414062 126.742188 75.300781 126.910156 75.21875 127.101562 C 75.136719 127.292969 75.097656 127.492188 75.097656 127.699219 C 75.097656 127.90625 75.136719 128.105469 75.21875 128.296875 C 75.300781 128.488281 75.414062 128.65625 75.5625 128.800781 C 75.710938 128.949219 75.882812 129.0625 76.078125 129.140625 C 76.273438 129.21875 76.476562 129.257812 76.6875 129.257812 C 185.71875 129.417969 294.746094 127.035156 403.730469 124.464844 C 512.714844 121.894531 621.761719 119.035156 730.816406 117.894531 C 792.019531 117.253906 853.246094 117.164062 914.457031 117.945312 C 914.738281 117.945312 915.011719 117.894531 915.273438 117.789062 C 915.535156 117.683594 915.765625 117.53125 915.964844 117.335938 C 916.164062 117.136719 916.316406 116.914062 916.425781 116.65625 C 916.535156 116.398438 916.589844 116.132812 916.589844 115.855469 C 916.589844 115.578125 916.535156 115.3125 916.425781 115.054688 C 916.316406 114.800781 916.164062 114.574219 915.964844 114.378906 C 915.765625 114.179688 915.535156 114.03125 915.273438 113.925781 C 915.011719 113.816406 914.738281 113.765625 914.457031 113.765625 Z M 914.457031 113.765625 " fill-opacity="1" fill-rule="nonzero"/></g></svg>