<svg xmlns="http://www.w3.org/2000/svg" xmlns:xlink="http://www.w3.org/1999/xlink" width="1500" zoomAndPan="magnify" viewBox="0 0 1125 225" height="300" preserveAspectRatio="xMidYMid meet" version="1.0"><defs><clipPath id="1462470c4d"><path d="M 551 103 L 571.800781 103 L 571.800781 122 L 551 122 Z M 551 103 " clip-rule="nonzero"/></clipPath><clipPath id="69faeb42b7"><path d="M 632.398438 111.074219 L 913.648438 111.074219 L 913.648438 117 L 632.398438 117 Z M 632.398438 111.074219 " clip-rule="nonzero"/></clipPath><clipPath id="461c1394c2"><path d="M 211.347656 111.203125 L 492.597656 111.203125 L 492.597656 117 L 211.347656 117 Z M 211.347656 111.203125 " clip-rule="nonzero"/></clipPath></defs><g clip-path="url(#1462470c4d)"><path fill="#020202" d="M 554.0625 121.789062 C 554.269531 122.03125 554.636719 122.054688 554.875 121.847656 C 555.117188 121.636719 555.144531 121.273438 554.9375 121.03125 C 550.8125 116.257812 551.96875 110.820312 554.941406 107.550781 C 557.667969 104.546875 562.375 102.910156 566.75 106.007812 C 569.511719 107.964844 570.722656 110.613281 570.160156 113.457031 C 569.582031 116.382812 567.191406 118.957031 564.472656 119.585938 C 562.308594 120.082031 560.285156 119.253906 558.769531 117.25 C 557.640625 115.765625 557.402344 113.828125 558.144531 112.199219 C 558.792969 110.777344 560.058594 109.871094 561.53125 109.769531 C 563.335938 109.652344 564.144531 110.632812 564.46875 111.234375 C 564.945312 112.121094 564.945312 113.261719 564.46875 113.886719 C 564.167969 114.277344 563.71875 114.40625 563.132812 114.269531 C 562.816406 114.195312 562.675781 113.9375 562.664062 113.902344 C 562.664062 113.902344 562.679688 113.886719 562.730469 113.875 C 563.039062 113.800781 563.230469 113.488281 563.15625 113.179688 C 563.082031 112.867188 562.765625 112.675781 562.457031 112.753906 C 561.882812 112.890625 561.527344 113.320312 561.53125 113.871094 C 561.53125 114.5625 562.109375 115.21875 562.871094 115.394531 C 563.894531 115.632812 564.8125 115.335938 565.386719 114.585938 C 566.144531 113.59375 566.183594 111.992188 565.484375 110.6875 C 564.714844 109.25 563.242188 108.496094 561.449219 108.617188 C 559.550781 108.746094 557.921875 109.90625 557.09375 111.71875 C 556.175781 113.738281 556.464844 116.121094 557.847656 117.949219 C 559.65625 120.335938 562.097656 121.320312 564.730469 120.710938 C 567.871094 119.988281 570.632812 117.03125 571.296875 113.683594 C 571.671875 111.761719 571.675781 108.085938 567.417969 105.066406 C 565.539062 103.734375 563.609375 103.171875 561.769531 103.171875 C 558.761719 103.171875 555.992188 104.675781 554.085938 106.773438 C 550.773438 110.421875 549.476562 116.480469 554.0625 121.789062 " fill-opacity="1" fill-rule="nonzero"/></g><g clip-path="url(#69faeb42b7)"><path fill="#000000" d="M 912.914062 111.695312 C 876.460938 111.238281 840.007812 111.714844 803.5625 112.484375 C 767.121094 113.253906 730.695312 114.316406 694.253906 115.035156 C 673.808594 115.441406 653.359375 115.703125 632.910156 115.824219 C 632.761719 115.824219 632.636719 115.875 632.535156 115.976562 C 632.429688 116.078125 632.378906 116.199219 632.378906 116.34375 C 632.378906 116.488281 632.429688 116.609375 632.535156 116.710938 C 632.636719 116.8125 632.761719 116.863281 632.910156 116.863281 C 669.351562 116.917969 705.789062 116.121094 742.214844 115.265625 C 778.640625 114.40625 815.085938 113.453125 851.535156 113.070312 C 871.992188 112.859375 892.453125 112.828125 912.914062 113.089844 C 913.109375 113.089844 913.277344 113.019531 913.414062 112.886719 C 913.554688 112.75 913.625 112.585938 913.625 112.390625 C 913.625 112.199219 913.554688 112.035156 913.414062 111.898438 C 913.277344 111.761719 913.109375 111.695312 912.914062 111.695312 Z M 912.914062 111.695312 " fill-opacity="1" fill-rule="nonzero"/></g><g clip-path="url(#461c1394c2)"><path fill="#000000" d="M 212.085938 116.582031 C 248.535156 117.039062 284.992188 116.5625 321.433594 115.792969 C 357.875 115.023438 394.300781 113.964844 430.742188 113.242188 C 451.1875 112.835938 471.636719 112.574219 492.085938 112.453125 C 492.234375 112.453125 492.359375 112.402344 492.464844 112.300781 C 492.566406 112.199219 492.617188 112.078125 492.617188 111.933594 C 492.617188 111.789062 492.566406 111.667969 492.464844 111.566406 C 492.359375 111.464844 492.234375 111.414062 492.085938 111.414062 C 455.644531 111.359375 419.207031 112.15625 382.78125 113.011719 C 346.355469 113.871094 309.910156 114.824219 273.460938 115.207031 C 253.003906 115.421875 232.542969 115.449219 212.085938 115.1875 C 211.886719 115.1875 211.71875 115.257812 211.582031 115.394531 C 211.441406 115.527344 211.371094 115.695312 211.371094 115.886719 C 211.371094 116.078125 211.441406 116.242188 211.582031 116.378906 C 211.71875 116.515625 211.886719 116.582031 212.085938 116.582031 Z M 212.085938 116.582031 " fill-opacity="1" fill-rule="nonzero"/></g></svg>