<svg xmlns="http://www.w3.org/2000/svg" xmlns:xlink="http://www.w3.org/1999/xlink" width="1500" zoomAndPan="magnify" viewBox="0 0 1125 225" height="300" preserveAspectRatio="xMidYMid meet" version="1.0"><defs><clipPath id="b0c78041f7"><path d="M 519 85.492188 L 551 85.492188 L 551 114.742188 L 519 114.742188 Z M 519 85.492188 " clip-rule="nonzero"/></clipPath><clipPath id="6a97bd74cd"><path d="M 625.539062 96.082031 L 993.039062 96.082031 L 993.039062 104.332031 L 625.539062 104.332031 Z M 625.539062 96.082031 " clip-rule="nonzero"/></clipPath><clipPath id="60c8b6b9e2"><path d="M 75.265625 96 L 442.765625 96 L 442.765625 104 L 75.265625 104 Z M 75.265625 96 " clip-rule="nonzero"/></clipPath></defs><g clip-path="url(#b0c78041f7)"><path fill="#020202" d="M 524.179688 114.3125 C 524.5 114.683594 525.058594 114.722656 525.425781 114.402344 C 525.796875 114.085938 525.839844 113.527344 525.519531 113.15625 C 519.207031 105.847656 520.976562 97.519531 525.527344 92.507812 C 529.703125 87.910156 536.914062 85.398438 543.613281 90.148438 C 547.84375 93.144531 549.699219 97.195312 548.835938 101.558594 C 547.953125 106.035156 544.289062 109.980469 540.125 110.941406 C 536.8125 111.703125 533.710938 110.433594 531.390625 107.367188 C 529.664062 105.089844 529.300781 102.125 530.433594 99.628906 C 531.425781 97.453125 533.363281 96.0625 535.617188 95.910156 C 538.382812 95.726562 539.621094 97.230469 540.117188 98.148438 C 540.847656 99.507812 540.847656 101.253906 540.117188 102.210938 C 539.660156 102.808594 538.96875 103.007812 538.070312 102.800781 C 537.585938 102.6875 537.371094 102.292969 537.355469 102.234375 C 537.355469 102.234375 537.378906 102.214844 537.457031 102.195312 C 537.929688 102.082031 538.222656 101.605469 538.109375 101.128906 C 537.992188 100.652344 537.511719 100.359375 537.039062 100.476562 C 536.160156 100.691406 535.613281 101.347656 535.617188 102.191406 C 535.625 103.25 536.503906 104.25 537.671875 104.523438 C 539.242188 104.886719 540.644531 104.433594 541.523438 103.285156 C 542.683594 101.765625 542.75 99.308594 541.675781 97.3125 C 540.496094 95.113281 538.238281 93.953125 535.496094 94.140625 C 532.585938 94.34375 530.089844 96.117188 528.824219 98.894531 C 527.417969 101.984375 527.863281 105.636719 529.980469 108.433594 C 532.746094 112.089844 536.492188 113.59375 540.523438 112.664062 C 545.332031 111.554688 549.558594 107.027344 550.574219 101.902344 C 551.15625 98.957031 551.15625 93.328125 544.636719 88.703125 C 541.761719 86.667969 538.804688 85.804688 535.984375 85.804688 C 531.378906 85.804688 527.136719 88.105469 524.222656 91.316406 C 519.140625 96.90625 517.160156 106.183594 524.179688 114.3125 " fill-opacity="1" fill-rule="nonzero"/></g><g clip-path="url(#6a97bd74cd)"><path fill="#000000" d="M 992.078125 96.933594 C 944.449219 96.308594 896.8125 96.960938 849.195312 98.019531 C 801.574219 99.078125 753.980469 100.535156 706.367188 101.527344 C 679.648438 102.085938 652.929688 102.445312 626.207031 102.609375 C 626.015625 102.609375 625.851562 102.679688 625.714844 102.816406 C 625.582031 102.957031 625.511719 103.125 625.511719 103.324219 C 625.511719 103.519531 625.582031 103.691406 625.714844 103.828125 C 625.851562 103.96875 626.015625 104.039062 626.207031 104.039062 C 673.824219 104.113281 721.4375 103.019531 769.03125 101.839844 C 816.628906 100.660156 864.253906 99.351562 911.878906 98.828125 C 938.605469 98.53125 965.347656 98.492188 992.078125 98.851562 C 992.335938 98.851562 992.554688 98.757812 992.734375 98.570312 C 992.917969 98.382812 993.007812 98.15625 993.007812 97.890625 C 993.007812 97.628906 992.917969 97.402344 992.734375 97.214844 C 992.554688 97.027344 992.335938 96.933594 992.078125 96.933594 Z M 992.078125 96.933594 " fill-opacity="1" fill-rule="nonzero"/></g><g clip-path="url(#60c8b6b9e2)"><path fill="#000000" d="M 76.226562 103.242188 C 123.855469 103.867188 171.488281 103.214844 219.109375 102.15625 C 266.726562 101.101562 314.324219 99.640625 361.9375 98.648438 C 388.652344 98.089844 415.375 97.730469 442.097656 97.566406 C 442.289062 97.566406 442.453125 97.496094 442.585938 97.359375 C 442.722656 97.21875 442.789062 97.050781 442.789062 96.851562 C 442.789062 96.65625 442.722656 96.488281 442.585938 96.347656 C 442.453125 96.207031 442.289062 96.136719 442.097656 96.136719 C 394.480469 96.0625 346.867188 97.15625 299.269531 98.335938 C 251.675781 99.515625 204.050781 100.824219 156.425781 101.347656 C 129.695312 101.644531 102.957031 101.683594 76.226562 101.324219 C 75.96875 101.324219 75.75 101.417969 75.566406 101.605469 C 75.386719 101.792969 75.292969 102.019531 75.292969 102.285156 C 75.292969 102.546875 75.386719 102.773438 75.566406 102.960938 C 75.75 103.148438 75.96875 103.242188 76.226562 103.242188 Z M 76.226562 103.242188 " fill-opacity="1" fill-rule="nonzero"/></g></svg>