<svg xmlns="http://www.w3.org/2000/svg" xmlns:xlink="http://www.w3.org/1999/xlink" width="1500" zoomAndPan="magnify" viewBox="0 0 1125 225" height="300" preserveAspectRatio="xMidYMid meet" version="1.0"><defs><clipPath id="5a290b8371"><path d="M 146 98 L 178 98 L 178 127.148438 L 146 127.148438 Z M 146 98 " clip-rule="nonzero"/></clipPath><clipPath id="36e585225f"><path d="M 215.625 96 L 993.375 96 L 993.375 112 L 215.625 112 Z M 215.625 96 " clip-rule="nonzero"/></clipPath></defs><g clip-path="url(#5a290b8371)"><path fill="#020202" d="M 150.828125 126.722656 C 151.148438 127.089844 151.707031 127.128906 152.078125 126.8125 C 152.445312 126.492188 152.488281 125.933594 152.167969 125.5625 C 145.855469 118.253906 147.625 109.925781 152.179688 104.914062 C 156.355469 100.320312 163.5625 97.808594 170.261719 102.554688 C 174.492188 105.554688 176.351562 109.605469 175.488281 113.964844 C 174.605469 118.441406 170.9375 122.386719 166.773438 123.347656 C 163.460938 124.109375 160.359375 122.839844 158.039062 119.773438 C 156.316406 117.496094 155.949219 114.53125 157.085938 112.035156 C 158.074219 109.859375 160.015625 108.46875 162.269531 108.316406 C 165.03125 108.132812 166.273438 109.636719 166.765625 110.554688 C 167.496094 111.914062 167.496094 113.664062 166.765625 114.617188 C 166.308594 115.214844 165.621094 115.414062 164.722656 115.207031 C 164.238281 115.09375 164.023438 114.699219 164.003906 114.640625 C 164.003906 114.640625 164.03125 114.621094 164.105469 114.601562 C 164.578125 114.488281 164.871094 114.011719 164.757812 113.535156 C 164.644531 113.0625 164.160156 112.769531 163.691406 112.882812 C 162.808594 113.097656 162.261719 113.753906 162.269531 114.597656 C 162.273438 115.65625 163.15625 116.660156 164.320312 116.929688 C 165.890625 117.292969 167.292969 116.839844 168.171875 115.691406 C 169.335938 114.171875 169.398438 111.714844 168.324219 109.71875 C 167.144531 107.519531 164.890625 106.363281 162.144531 106.550781 C 159.234375 106.75 156.742188 108.523438 155.472656 111.300781 C 154.070312 114.390625 154.511719 118.042969 156.628906 120.839844 C 159.394531 124.496094 163.140625 126.003906 167.171875 125.070312 C 171.984375 123.964844 176.207031 119.433594 177.222656 114.308594 C 177.804688 111.363281 177.808594 105.734375 171.285156 101.109375 C 168.410156 99.074219 165.453125 98.210938 162.636719 98.210938 C 158.027344 98.210938 153.785156 100.511719 150.871094 103.722656 C 145.792969 109.3125 143.808594 118.59375 150.828125 126.722656 " fill-opacity="1" fill-rule="nonzero"/></g><g clip-path="url(#36e585225f)"><path fill="#000000" d="M 217.660156 111.257812 C 318.460938 112.566406 419.269531 111.199219 520.046875 108.992188 C 620.824219 106.78125 721.554688 103.734375 822.320312 101.660156 C 878.863281 100.496094 935.410156 99.746094 991.960938 99.402344 C 992.15625 99.402344 992.34375 99.367188 992.523438 99.289062 C 992.707031 99.214844 992.863281 99.105469 993 98.964844 C 993.140625 98.824219 993.246094 98.664062 993.320312 98.480469 C 993.394531 98.296875 993.433594 98.109375 993.433594 97.910156 C 993.433594 97.710938 993.394531 97.519531 993.320312 97.335938 C 993.246094 97.15625 993.140625 96.992188 993 96.851562 C 992.863281 96.710938 992.707031 96.605469 992.523438 96.527344 C 992.34375 96.453125 992.15625 96.414062 991.960938 96.414062 C 891.191406 96.261719 790.421875 98.542969 689.695312 101.007812 C 588.96875 103.46875 488.179688 106.210938 387.390625 107.300781 C 330.820312 107.917969 274.234375 108.003906 217.660156 107.253906 C 217.398438 107.253906 217.148438 107.304688 216.90625 107.40625 C 216.664062 107.507812 216.453125 107.652344 216.269531 107.839844 C 216.082031 108.027344 215.941406 108.246094 215.839844 108.488281 C 215.742188 108.734375 215.691406 108.992188 215.691406 109.257812 C 215.691406 109.523438 215.742188 109.777344 215.839844 110.023438 C 215.941406 110.269531 216.082031 110.484375 216.269531 110.671875 C 216.453125 110.859375 216.664062 111.003906 216.90625 111.105469 C 217.148438 111.207031 217.398438 111.257812 217.660156 111.257812 Z M 217.660156 111.257812 " fill-opacity="1" fill-rule="nonzero"/></g></svg>